<svg width="32" height="32" viewBox="0 0 32 32" fill="none" xmlns="http://www.w3.org/2000/svg">
<path d="M30.8571 14.8571C30.8571 26.2857 16 32 16 32C16 32 1.14288 26.2857 1.14288 14.8571C1.14288 6.65175 7.79462 0 16 0C24.2054 0 30.8571 6.65175 30.8571 14.8571Z" fill="#91DC5A"/>
<path d="M16 0C24.2054 0 30.8571 6.65175 30.8571 14.8571C30.8571 26.2857 16 32 16 32" fill="#64C37D"/>
<path d="M25.5956 18.8811C23.2351 21.281 18.4697 20.4218 18.4697 20.4218C18.4697 20.4218 17.5317 15.6713 19.8921 13.2715C22.2525 10.8716 27.018 11.7308 27.018 11.7308C27.018 11.7308 27.9561 16.4811 25.5956 18.8811Z" fill="#1E2E3B"/>
<path d="M6.40444 18.8811C8.76488 21.281 13.5303 20.4218 13.5303 20.4218C13.5303 20.4218 14.4684 15.6713 12.1079 13.2715C9.74744 10.8716 4.98207 11.7308 4.98207 11.7308C4.98207 11.7308 4.044 16.4811 6.40444 18.8811Z" fill="#3C5D76"/>
<path d="M12.5714 24C12.5714 25.8935 14.1065 27.4286 16 27.4286C17.8935 27.4286 19.4286 25.8935 19.4286 24H12.5714Z" fill="#3C5D76"/>
<path d="M16 24C16 25.8935 16 26.4 16 27.4286C17.8935 27.4286 19.4286 25.8935 19.4286 24H16Z" fill="#1E2E3B"/>
</svg>
